<?xml version="1.0" encoding="UTF-8" standalone="no"?>
<!-- Created with Inkscape (http://www.inkscape.org/) -->

<svg
   width="250.44012mm"
   height="120.59299mm"
   viewBox="0 0 250.44012 120.59299"
   version="1.1"
   id="svg5"
   xml:space="preserve"
   inkscape:version="1.2.2 (732a01da63, 2022-12-09)"
   sodipodi:docname="logo_white.svg"
   xmlns:inkscape="http://www.inkscape.org/namespaces/inkscape"
   xmlns:sodipodi="http://sodipodi.sourceforge.net/DTD/sodipodi-0.dtd"
   xmlns="http://www.w3.org/2000/svg"
   xmlns:svg="http://www.w3.org/2000/svg"><sodipodi:namedview
     id="namedview7"
     pagecolor="#ffffff"
     bordercolor="#000000"
     borderopacity="0.25"
     inkscape:showpageshadow="2"
     inkscape:pageopacity="0.0"
     inkscape:pagecheckerboard="0"
     inkscape:deskcolor="#d1d1d1"
     inkscape:document-units="mm"
     showgrid="false"
     inkscape:zoom="0.914906"
     inkscape:cx="195.10201"
     inkscape:cy="236.08983"
     inkscape:window-width="2560"
     inkscape:window-height="1369"
     inkscape:window-x="-8"
     inkscape:window-y="-8"
     inkscape:window-maximized="1"
     inkscape:current-layer="layer1" /><defs
     id="defs2" /><g
     inkscape:label="Layer 1"
     inkscape:groupmode="layer"
     id="layer1"
     transform="translate(19.93087,-85.889969)"><path
       style="fill:#ffffff;fill-opacity:1;stroke-width:0.264583"
       d="m 20.87449,200.29913 c -3.06505,-0.60083 -5.95259,-2.9072 -7.45137,-5.95166 -1.98086,-4.0237 -0.94664,-7.91656 2.53378,-9.53725 1.72033,-0.80109 3.33512,-0.80019 5.03789,0.003 1.57647,0.74342 2.29505,1.475 3.02048,3.07514 1.37003,3.02197 0.0127,6.69779 -2.98951,8.09568 -0.74464,0.34672 -1.7706,0.63532 -2.27992,0.64134 l -0.92605,0.011 0.72805,0.64078 c 0.91389,0.80436 2.28213,1.19121 4.21987,1.1931 4.58309,0.005 7.19521,-1.65368 8.73054,-5.54211 0.48314,-1.22361 0.58204,-2.01821 0.59432,-4.77516 0.0125,-2.81101 -0.12097,-3.93261 -0.88953,-7.47448 l -0.90426,-4.16744 H 13.01293 -4.2729093 V 144.62878 112.7465 H 6.7994907 17.8719 l 0.32094,-2.31511 c 0.17652,-1.27331 0.67747,-3.38667 1.11322,-4.69635 2.72665,-8.195124 7.30556,-11.379394 11.20056,-7.789114 2.40254,2.214594 3.78692,6.177174 4.03936,11.562064 l 0.15207,3.24378 38.12754,-0.0688 38.12753,-0.0688 8.22044,-3.77037 8.22044,-3.77037 11.17159,3.83652 11.1716,3.83651 h 32.26786 32.26786 v 31.88228 31.88229 h -90.75208 c -72.42651,0 -90.75161,0.0668 -90.74976,0.33073 10e-4,0.1819 0.41604,2.23573 0.92171,4.56406 1.79737,8.27591 1.03673,12.86203 -2.69962,16.27684 -2.48909,2.27489 -6.53031,3.31984 -10.11867,2.61643 z M 17.92068,174.95956 C 12.14692,172.87393 7.0652307,168.04797 4.9686707,162.65936 l -0.73573,-1.891 H 0.31074075 -3.6114493 l -0.0703,7.47448 -0.0703,7.47448 11.84422,-0.0148 11.8442193,-0.0148 -2.01578,-0.72816 z m 61.78807,0.0302 c -0.0948,-0.48385 0.53269,-2.88247 1.87317,-7.15984 1.10868,-3.53773 2.081537,-6.60359 2.161907,-6.81302 0.12638,-0.32936 -2.698437,-0.38079 -20.916557,-0.38079 -11.58448,0 -21.06269,0.0645 -21.06269,0.14345 0,0.0789 -0.18576,1.06116 -0.41281,2.18281 -0.91082,4.49964 -4.03011,9.17367 -7.45281,11.16749 -0.93167,0.54273 -1.53764,1.06294 -1.46393,1.25677 0.0993,0.26118 5.09827,0.33073 23.77104,0.33073 h 23.64528 z m 23.7006,0.66146 c -0.002,-0.0364 -0.9364,-3.3999 -2.07705,-7.47448 l -2.073913,-7.40834 -5.83827,-0.0711 -5.838279,-0.0711 -0.273931,0.8649 c -0.15066,0.47569 -1.17323,3.76444 -2.27238,7.30833 -1.099149,3.54389 -2.064447,6.55022 -2.145106,6.68073 -0.0856,0.13845 4.157947,0.23729 10.187707,0.23729 5.683899,0 10.332952,-0.0298 10.331222,-0.0661 z m 10.3219,-0.0522 c 0,-0.22964 -4.23686,-13.78055 -4.49222,-14.36763 -0.24605,-0.56569 -0.40404,-0.59532 -3.17503,-0.59532 -2.35019,0 -2.91608,0.0733 -2.91608,0.37779 0,0.20778 0.83637,3.36527 1.85861,7.01665 1.46753,5.24196 1.79961,6.74912 1.57819,7.16284 -0.27331,0.51067 -0.18617,0.52397 3.43305,0.52397 2.04241,0 3.71348,-0.0532 3.71348,-0.1183 z m 7.51595,-0.6093 c -0.0918,-0.46483 0.53166,-3.14328 1.7264,-7.41644 1.02858,-3.67887 1.87015,-6.74473 1.87015,-6.81303 0,-0.0683 -2.67891,-0.12418 -5.95313,-0.12418 -3.27422,0 -5.95312,0.067 -5.95312,0.14888 0,0.0819 0.95895,3.20529 2.13101,6.94089 1.73199,5.52022 2.07985,6.90431 1.85776,7.39175 -0.2729,0.59895 -0.27016,0.59973 2.0957,0.59973 h 2.36897 z m 9.47885,-0.13229 c -0.0623,-0.55339 0.6168,-3.13622 1.90521,-7.24587 1.10114,-3.51228 2.00207,-6.5186 2.00207,-6.68073 0,-0.19929 -0.97164,-0.29476 -3.00009,-0.29476 h -3.00008 l -1.93112,6.94531 c -1.06212,3.81993 -2.03086,7.21321 -2.15274,7.54063 l -0.22162,0.59531 h 3.24761 3.24761 z m 23.6127,0.52916 c -0.11783,-0.32016 -3.20411,-11.345 -3.81586,-13.63107 l -0.30225,-1.12951 -5.85053,0.0712 -5.85053,0.0712 -2.18604,7.01146 c -1.20232,3.8563 -2.26806,7.21982 -2.36831,7.47448 -0.1717,0.43618 0.417,0.46302 10.15649,0.46302 8.15953,0 10.31309,-0.0697 10.21703,-0.33073 z m 10.29271,-0.26458 c -0.11001,-0.32742 -1.16937,-3.69094 -2.35411,-7.47448 l -2.15409,-6.87917 -3.10823,-0.0747 c -2.87793,-0.0692 -3.09754,-0.0398 -2.964,0.39688 1.41502,4.6269 3.6249,13.28596 3.5394,13.86852 l -0.11129,0.75828 h 3.67617 3.67617 z m 7.64357,-0.39688 c -0.0471,-0.61978 0.60777,-3.42521 1.74476,-7.47447 l 1.82015,-6.4823 -5.82557,-0.0713 c -3.20407,-0.0392 -5.88621,-0.0107 -5.96033,0.0634 -0.0741,0.0741 0.79112,3.10737 1.92273,6.74056 1.35111,4.3379 2.01691,6.88227 1.9393,7.41105 l -0.11818,0.80522 h 2.27627 2.27627 z m 35.11871,-6.54843 v -7.54063 h -13.87011 -13.8701 l -0.26926,0.8599 c -0.14809,0.47294 -1.0639,3.71334 -2.03513,7.20089 -0.97122,3.48755 -1.82453,6.49388 -1.89623,6.68073 -0.10525,0.27428 2.95881,0.33973 15.90523,0.33973 h 16.0356 z m 3.175,0 v -7.54063 h -1.19063 -1.19062 v 7.54063 7.54062 h 1.19062 1.19063 z m -182.55263,5.42209 c 0.77274,-0.14655 1.44417,-0.30564 1.49206,-0.35353 0.0725,-0.0725 -1.9853,-10.0882 -2.4683,-12.01387 -0.14588,-0.58163 -0.23382,-0.59532 -3.8248,-0.59532 h -3.67548 l 0.006,1.25677 c 0.014,2.7899 0.85187,4.45319 3.16465,6.28231 0.73492,0.58124 1.21706,1.09651 1.07141,1.14506 -0.14565,0.0485 -1.18953,-0.35599 -2.31974,-0.89897 -2.83703,-1.36299 -5.3147,-3.83215 -6.15335,-6.13222 l -0.6027,-1.65295 H 11.95815 9.2104307 l 0.17766,0.72761 c 1.5074593,6.17395 6.4343493,11.0337 12.4001293,12.23115 1.53997,0.3091 4.60825,0.31105 6.22756,0.004 z m 5.22861,-2.23045 c 0.62559,-0.49734 1.35337,-1.18079 1.61728,-1.51878 1.41639,-1.81393 2.48973,-5.33906 2.3513,-7.72232 l -0.0789,-1.35888 -3.902599,-0.0732 c -3.02757,-0.0568 -3.90257,0.003 -3.902441,0.26458 1.3e-4,0.26597 1.569151,7.72716 2.254891,10.7227 0.17884,0.78124 0.31517,0.75546 1.6605,-0.31409 z M 3.7305407,156.46889 c -0.13771,-3.96186 0.29508,-6.59398 1.62605,-9.88912 l 0.62774,-1.55411 h -4.86404 -4.86404 v 7.36423 c 0,4.05033 0.0794,7.44361 0.17639,7.54063 0.097,0.097 1.80718,0.17639 3.80038005,0.17639 H 3.8570007 Z m 10.9193693,1.87924 c 0.12479,-1.96219 0.87212,-4.18881 1.99128,-5.93288 1.16068,-1.80876 3.73746,-4.11141 5.664,-5.06142 1.50886,-0.74406 1.62291,-0.86162 1.51949,-1.56631 l -0.11182,-0.76186 h -4.3217 -4.32171 l -1.89296,2.18281 c -2.10243,2.42434 -3.1815293,4.33611 -3.8044593,6.74008 -0.41896,1.6168 -0.57418,5.64718 -0.23071,5.99064 0.10178,0.10178 1.3595793,0.15139 2.7950993,0.11024 l 2.61005,-0.0748 z m 12.03343,1.3591 c 0,-0.32823 -0.54739,-3.02078 -1.19126,-5.85975 -0.11939,-0.5264 -0.20417,-0.54796 -1.08813,-0.27666 -2.03263,0.62383 -4.07768,3.14944 -4.70326,5.80848 l -0.17118,0.72761 h 3.57691 c 3.01423,0 3.57692,-0.0629 3.57692,-0.39968 z m 9.86047,-0.85709 c -0.60417,-1.78172 -3.16252,-4.29865 -5.10837,-5.02567 -0.80608,-0.30117 -2.01652,-0.6302 -2.68986,-0.73118 l -1.22425,-0.18358 0.24724,1.1512 c 0.13598,0.63316 0.49299,2.25253 0.79335,3.5986 l 0.54611,2.4474 h 3.93097 3.93096 z m 47.457988,0.93364 c 0.10984,-0.17772 1.10348,-3.23397 2.2081,-6.79168 1.67255,-5.38691 2.12312,-6.55422 2.69453,-6.98084 1.10768,-0.827 2.60182,-0.0466 2.60182,1.35887 0,0.39555 -0.77749,3.21478 -1.72775,6.26496 -0.95027,3.05018 -1.79173,5.75413 -1.86991,6.0088 -0.13228,0.43081 0.2455,0.46302 5.43191,0.46302 4.28351,0 5.57381,-0.0766 5.57289,-0.33073 -5.3e-4,-0.1819 -0.71503,-2.86497 -1.5875,-5.96237 -0.872471,-3.0974 -1.58631,-5.97616 -1.58631,-6.39724 0,-1.44492 1.47565,-2.24612 2.59612,-1.40956 0.58342,0.43558 0.94734,1.46765 2.552162,7.23781 l 1.87172,6.72979 2.97229,0.0748 c 2.42492,0.061 2.97229,0.006 2.97229,-0.30051 0,-0.20642 -0.84331,-3.08809 -1.87403,-6.40371 -1.55049,-4.98762 -1.82512,-6.13572 -1.59075,-6.65011 0.39485,-0.8666 1.47081,-1.23619 2.36472,-0.81228 0.74157,0.35166 0.97178,0.96823 4.00203,10.71836 l 1.08954,3.50573 h 6.17464 6.17464 l 1.63563,-5.88698 c 0.89961,-3.23784 1.78586,-6.36323 1.96946,-6.94531 0.59354,-1.88175 2.61961,-2.21032 3.37716,-0.54769 0.24866,0.54575 0.0327,1.60278 -1.33873,6.55233 -0.89938,3.24588 -1.69864,6.11382 -1.77615,6.3732 -0.13046,0.43655 0.0908,0.46604 2.97712,0.39688 l 3.11804,-0.0747 1.90062,-6.08541 c 2.51432,-8.05037 2.36739,-7.69117 3.30482,-8.07946 0.70558,-0.29226 0.8912,-0.2683 1.51486,0.19557 0.39091,0.29075 0.74773,0.77644 0.79293,1.07931 0.0452,0.30286 -0.75876,3.26748 -1.78656,6.58804 -1.0278,3.32055 -1.86845,6.12667 -1.86811,6.23581 2.6e-4,0.10914 2.50093,0.19844 5.55687,0.19844 3.05594,0 5.55625,-0.0635 5.55625,-0.14105 0,-0.0776 -0.78417,-2.95451 -1.74259,-6.39318 -1.4287,-5.12597 -1.69141,-6.36446 -1.45846,-6.87572 0.59046,-1.29592 2.65045,-1.31071 3.19867,-0.023 0.14063,0.33034 0.9737,3.22 1.85127,6.42146 0.87757,3.20146 1.71098,6.08872 1.85204,6.41614 0.24378,0.56584 0.40085,0.59532 3.17256,0.59532 1.60385,0 2.91609,-0.1073 2.91609,-0.23843 0,-0.13113 -0.84126,-2.93258 -1.86947,-6.22543 -1.02821,-3.29285 -1.83189,-6.23947 -1.78594,-6.54805 0.0459,-0.30858 0.38993,-0.7889 0.76441,-1.06738 0.82839,-0.61604 1.96521,-0.41944 2.41431,0.41753 0.1667,0.31069 1.20919,3.48191 2.31665,7.04717 l 2.01356,6.48229 h 6.20918 6.20918 l 1.41053,-5.02708 c 2.42614,-8.64667 2.39974,-8.5696 3.09057,-9.02225 0.82923,-0.54333 1.98605,-0.19564 2.43927,0.73314 0.28451,0.58305 0.1085,1.45124 -1.38906,6.8517 -0.94317,3.40123 -1.71486,6.27692 -1.71486,6.39042 0,0.1135 6.19125,0.20637 13.75834,0.20637 h 13.75833 v -7.54063 -7.54062 h -90.77147 c -84.777689,0 -90.765839,0.0293 -90.685939,0.44341 0.0709,0.36773 0.37909,0.43385 1.80534,0.38737 3.56112,-0.11604 6.97251,1.38297 10.00289,4.39543 2.63879,2.62319 4.02002,5.70349 4.02002,8.96511 v 0.88993 h 21.01876 c 16.26576,0 21.063917,-0.0731 21.218457,-0.32313 z m 126.566942,-7.2175 v -7.54062 h -1.19063 -1.19062 v 7.54062 7.54063 h 1.19062 1.19063 z M 7.3077107,142.65078 c 1.52334,-2.77344 4.0353803,-5.86143 7.9151003,-9.72981 l 3.78136,-3.77031 H 7.6302107 -3.7437493 v 7.54062 7.54063 l 5.09323,-0.003 5.09323,-0.003 0.865,-1.57485 z m 15.4466903,-1.75065 -0.6844,-3.33177 -2.97292,3.13334 c -1.6351,1.72333 -2.97835,3.22263 -2.98499,3.33177 -0.007,0.10914 1.63914,0.19844 3.65731,0.19844 h 3.6694 z m 184.639339,-4.20885 v -7.54062 h -7.24561 -7.24561 l -0.43066,0.65725 c -0.65335,0.99715 -1.39061,1.02409 -3.97932,0.14541 l -2.36473,-0.80266 H 134.47607 82.82433 l -1.76912,0.79375 -1.76912,0.79375 H 66.45811 53.63013 l -0.79375,-0.79375 -0.79375,-0.79375 H 40.31025 28.57787 l -1.38558,1.91823 c -0.76207,1.05502 -1.85062,2.47941 -2.41899,3.16529 l -1.03341,1.24707 0.55929,2.58939 c 0.30761,1.42417 0.74131,3.39306 0.96376,4.37533 l 0.40448,1.78594 h 90.86316 90.86316 z m -117.104873,6.50706 c -4.99455,-2.26824 -5.45685,-9.23884 -0.81209,-12.24461 1.77655,-1.14966 4.45136,-1.34801 6.46967,-0.47976 1.51715,0.65266 3.05877,2.18085 3.69906,3.66685 0.533983,1.23923 0.537963,4.11721 0.007,5.34783 -0.62698,1.45426 -2.05239,2.9111 -3.51452,3.59197 -1.68745,0.78581 -4.26421,0.83767 -5.84951,0.11772 z m 25.825653,0.15614 c -1.51622,-0.48281 -3.58371,-2.71151 -4.07815,-4.39612 -0.52214,-1.779 -0.52734,-2.47707 -0.0309,-4.14884 1.40111,-4.71804 7.44768,-6.45349 11.14518,-3.19882 1.77642,1.56367 2.34226,2.823 2.34226,5.21287 0,1.53161 -0.1321,2.23398 -0.57895,3.07829 -0.76191,1.43957 -2.05556,2.70796 -3.37166,3.30582 -1.20832,0.54891 -3.93357,0.62261 -5.42781,0.1468 z m 24.92696,-0.33377 c -2.45687,-1.22431 -3.7507,-3.36206 -3.7507,-6.19714 0,-4.02509 2.84925,-6.87916 6.86755,-6.87916 4.02147,0 6.85979,2.84658 6.87335,6.89336 0.0134,3.99993 -2.84405,6.84561 -6.88755,6.85916 -1.34121,0.004 -2.04401,-0.14868 -3.10265,-0.67622 z m 25.71196,0.17763 c -4.99454,-2.26824 -5.45685,-9.23884 -0.81209,-12.24461 1.77655,-1.14966 4.45137,-1.34801 6.46967,-0.47976 1.51716,0.65266 3.05877,2.18085 3.69907,3.66685 0.53397,1.23923 0.53795,4.11721 0.007,5.34783 -0.62698,1.45426 -2.0524,2.9111 -3.51452,3.59197 -1.68746,0.78581 -4.26421,0.83767 -5.84951,0.11772 z m 43.8153,-6.50706 v -7.54062 h -1.19063 -1.19062 v 7.54062 7.54063 h 1.19062 1.19063 z M 19.95482,127.6744 c -0.9954,-3.96597 -1.98907,-10.37321 -1.99757,-12.88035 l -0.005,-1.52432 -10.7817693,0.0691 -10.78177,0.0691 -0.0703,7.47448 -0.0703,7.47447 H 8.1871607 20.12622 Z m 32.97052,0.021 0.78609,-0.66146 h 12.54466 12.54465 l 14.753267,-6.65223 c 8.114313,-3.65873 14.866803,-6.75477 15.005563,-6.88009 0.14116,-0.1275 -16.102983,-0.19832 -36.88157,-0.16079 l -37.13385,0.0671 -0.4893,2.42201 c -0.66164,3.27502 -1.84418,6.5583 -3.53509,9.81497 l -1.40809,2.71198 h 11.51379 11.51378 l 0.786101,-0.66146 z m 115.17778,-4.7756 c -8.58573,-2.97675 -18.41493,-6.3682 -21.84267,-7.53657 l -6.23225,-2.1243 -11.23025,0.0745 -11.23024,0.0745 -9.89472,4.49792 -9.894723,4.49791 18.713523,0.13229 c 18.13834,0.12823 18.72505,0.14808 19.08898,0.64589 0.40154,0.54924 0.4922,1.6807 0.17298,2.15878 -0.58164,0.87109 -1.27286,0.8995 -21.88484,0.8995 H 93.334277 l -0.63795,-0.63795 -0.63795,-0.63795 -3.51721,1.59783 c -1.93447,0.8788 -3.56682,1.64213 -3.62746,1.69628 -0.0606,0.0541 22.144533,0.0929 49.344793,0.086 l 49.45503,-0.0124 -15.61041,-5.41225 z m 39.29062,-2.10351 v -7.54063 h -27.82535 c -15.30394,0 -27.76348,0.0619 -27.68787,0.13747 0.0756,0.0756 9.11444,3.23387 20.08628,7.01836 13.56831,4.68007 20.07575,7.04477 20.34569,7.39328 0.37528,0.48452 0.79635,0.51293 7.73906,0.52227 l 7.34219,0.01 z m 3.175,0 v -7.54063 h -1.19063 -1.19062 v 7.54063 7.54062 h 1.19062 1.19063 z m -185.83835,2.97656 c 1.84812,-1.90797 2.92079,-3.27556 3.61821,-4.61297 0.96787,-1.85605 2.30349,-5.12954 2.30349,-5.64568 0,-0.15875 -1.83631,-0.25854 -4.75746,-0.25854 h -4.75746 l -0.20348,0.72761 c -0.40247,1.43918 -0.22211,7.24823 0.30806,9.92187 0.28135,1.41883 0.59034,2.57968 0.68664,2.57968 0.0963,0 1.3572,-1.22039 2.802,-2.71197 z m 6.28629,-11.64167 c 0.68824,-2.53327 0.3368,-6.64079 -0.65285,-7.63044 -1.67367,-1.67367 -5.95293,1.11789 -7.90789,5.15869 -0.4289,0.88652 -0.85673,1.93928 -0.95073,2.33946 l -0.17091,0.72761 h 4.76033 c 4.71232,0 4.76195,-0.006 4.92205,-0.59532 z m 106.79165,0.362 c -0.21829,-0.11947 -2.61075,-0.97544 -5.31659,-1.90216 l -4.9197,-1.68494 -4.00998,1.81736 c -2.20549,0.99954 -4.00998,1.85913 -4.00998,1.9102 0,0.0511 4.19695,0.0892 9.32656,0.0848 5.12961,-0.004 9.14797,-0.1058 8.92969,-0.22527 z"
       id="path302" /></g></svg>
